<?xml version="1.0" encoding="UTF-8" ?>
<svg xmlns="http://www.w3.org/2000/svg" version="1.1" xmlns:xlink="http://www.w3.org/1999/xlink">
    <polygon fill="none" stroke="orange" stroke-width="1" points="210,100 210,104 270.0,104 270.0,207.0 272.0,207.0 272.0,138.0 317.5,138.0 317.5,207.0 365.0,307.0 365.0,476.0 272.0,476.0 272.0,407.0 270.0,407.0 270.0,605.0 210.0,605.0 210.0,609.0 190.0,609.0 190.0,605.0 130.0,605.0 130.0,407.0 128.0,407.0 128.0,476.0 35.0,476.0 35.0,307.0 82.5,207.0 82.5,138.0 128.0,138.0 128.0,207.0 130.0,207.0 130.0,104 190,104 190,100 "/>
    <line x1="130.0" y1="151.5" x2="270.0" y2="151.5" stroke="blue" stroke-width="1"/>
    <line x1="130.0" y1="157.5" x2="270.0" y2="157.5" stroke="blue" stroke-width="1"/>
    <line x1="130.0" y1="205.0" x2="270.0" y2="205.0" stroke="blue" stroke-width="1"/>
    <line x1="130.0" y1="409.0" x2="270.0" y2="409.0" stroke="blue" stroke-width="1"/>
    <line x1="130.0" y1="504.0" x2="270.0" y2="504.0" stroke="blue" stroke-width="1"/>
    <line x1="130.0" y1="510.0" x2="270.0" y2="510.0" stroke="blue" stroke-width="1"/>
    <line x1="130.0" y1="207.0" x2="130.0" y2="407.0" stroke="blue" stroke-width="1"/>
    <line x1="270.0" y1="207.0" x2="270.0" y2="407.0" stroke="blue" stroke-width="1"/>
    <line x1="82.5" y1="207.0" x2="128.0" y2="207.0" stroke="blue" stroke-width="1"/>
    <line x1="317.5" y1="207.0" x2="272.0" y2="207.0" stroke="blue" stroke-width="1"/>
    <line x1="35.0" y1="407.0" x2="128.0" y2="407.0" stroke="blue" stroke-width="1"/>
    <line x1="365.0" y1="407.0" x2="272.0" y2="407.0" stroke="blue" stroke-width="1"/>
    <rect x="189.5" y="211.0" width="21" height="2" style="stroke-width:1;stroke:orange;fill:none"/>
    <rect x="189.5" y="400.0" width="21" height="2" style="stroke-width:1;stroke:orange;fill:none"/>
    <rect x="45.0" y="332.0" width="20" height="50.0" style="stroke-width:1;stroke:orange;fill:none"/>
    <rect x="335.0" y="332.0" width="20" height="50.0" style="stroke-width:1;stroke:orange;fill:none"/>
    <line x1="273.0" y1="277.0" x2="275.5927977839335" y2="274.2363953873693" stroke="blue" stroke-width="1"/>
    <line x1="275.5927977839335" y1="274.2363953873693" x2="278.18559556786704" y2="271.47279077473866" stroke="blue" stroke-width="1"/>
    <line x1="278.18559556786704" y1="271.47279077473866" x2="281.8753462603878" y2="272.33641721618574" stroke="blue" stroke-width="1"/>
    <line x1="281.8753462603878" y1="272.33641721618574" x2="285.56509695290856" y2="273.2000436576328" stroke="blue" stroke-width="1"/>
    <line x1="285.56509695290856" y1="273.2000436576328" x2="286.66204986149586" y2="276.8272747117106" stroke="blue" stroke-width="1"/>
    <line x1="286.66204986149586" y1="276.8272747117106" x2="284.06925207756234" y2="279.59087932434124" stroke="blue" stroke-width="1"/>
    <line x1="284.06925207756234" y1="279.59087932434124" x2="281.4764542936288" y2="282.3544839369719" stroke="blue" stroke-width="1"/>
    <line x1="281.4764542936288" y1="282.3544839369719" x2="280.3795013850415" y2="278.72725288289416" stroke="blue" stroke-width="1"/>
    <line x1="280.3795013850415" y1="278.72725288289416" x2="282.97229916897504" y2="275.9636482702635" stroke="blue" stroke-width="1"/>
    <line x1="282.97229916897504" y1="275.9636482702635" x2="279.2825484764543" y2="275.1000218288164" stroke="blue" stroke-width="1"/>
    <line x1="279.2825484764543" y1="275.1000218288164" x2="276.68975069252076" y2="277.8636264414471" stroke="blue" stroke-width="1"/>
    <line x1="276.68975069252076" y1="277.8636264414471" x2="277.786703601108" y2="281.49085749552484" stroke="blue" stroke-width="1"/>
    <line x1="277.786703601108" y1="281.49085749552484" x2="278.8836565096953" y2="285.1180885496026" stroke="blue" stroke-width="1"/>
    <line x1="278.8836565096953" y1="285.1180885496026" x2="282.57340720221606" y2="285.98171499104967" stroke="blue" stroke-width="1"/>
    <line x1="282.57340720221606" y1="285.98171499104967" x2="285.1662049861496" y2="283.218110378419" stroke="blue" stroke-width="1"/>
    <line x1="285.1662049861496" y1="283.218110378419" x2="287.7590027700831" y2="280.4545057657883" stroke="blue" stroke-width="1"/>
    <line x1="287.7590027700831" y1="280.4545057657883" x2="290.3518005540166" y2="277.69090115315765" stroke="blue" stroke-width="1"/>
    <line x1="290.3518005540166" y1="277.69090115315765" x2="289.2548476454294" y2="274.0636700990799" stroke="blue" stroke-width="1"/>
    <line x1="289.2548476454294" y1="274.0636700990799" x2="288.15789473684214" y2="270.43643904500215" stroke="blue" stroke-width="1"/>
    <line x1="288.1578947368421" y1="270.43643904500215" x2="290.7506925207756" y2="267.6728344323715" stroke="blue" stroke-width="1"/>
    <line x1="290.7506925207756" y1="267.6728344323715" x2="293.3434903047091" y2="264.9092298197408" stroke="blue" stroke-width="1"/>
    <line x1="293.3434903047091" y1="264.9092298197408" x2="297.03324099722994" y2="265.7728562611879" stroke="blue" stroke-width="1"/>
    <line x1="297.03324099722994" y1="265.7728562611879" x2="300.7229916897507" y2="266.63648270263496" stroke="blue" stroke-width="1"/>
    <line x1="300.7229916897507" y1="266.63648270263496" x2="301.81994459833794" y2="270.2637137567127" stroke="blue" stroke-width="1"/>
    <line x1="301.81994459833794" y1="270.2637137567127" x2="299.2271468144044" y2="273.0273183693434" stroke="blue" stroke-width="1"/>
    <line x1="299.2271468144044" y1="273.0273183693434" x2="296.6343490304709" y2="275.79092298197406" stroke="blue" stroke-width="1"/>
    <line x1="296.6343490304709" y1="275.79092298197406" x2="295.53739612188366" y2="272.1636919278963" stroke="blue" stroke-width="1"/>
    <line x1="295.53739612188366" y1="272.1636919278963" x2="298.1301939058172" y2="269.40008731526564" stroke="blue" stroke-width="1"/>
    <line x1="298.1301939058172" y1="269.40008731526564" x2="294.4404432132964" y2="268.53646087381856" stroke="blue" stroke-width="1"/>
    <line x1="294.4404432132964" y1="268.53646087381856" x2="291.8476454293629" y2="271.3000654864492" stroke="blue" stroke-width="1"/>
    <line x1="291.8476454293629" y1="271.3000654864492" x2="292.94459833795014" y2="274.927296540527" stroke="blue" stroke-width="1"/>
    <line x1="292.94459833795014" y1="274.927296540527" x2="294.04155124653744" y2="278.55452759460474" stroke="blue" stroke-width="1"/>
    <line x1="294.04155124653744" y1="278.55452759460474" x2="297.7313019390582" y2="279.4181540360518" stroke="blue" stroke-width="1"/>
    <line x1="297.7313019390582" y1="279.4181540360518" x2="300.3240997229917" y2="276.65454942342114" stroke="blue" stroke-width="1"/>
    <line x1="300.3240997229917" y1="276.65454942342114" x2="302.91689750692524" y2="273.8909448107905" stroke="blue" stroke-width="1"/>
    <line x1="302.91689750692524" y1="273.8909448107905" x2="305.50969529085876" y2="271.1273401981598" stroke="blue" stroke-width="1"/>
    <line x1="305.50969529085876" y1="271.1273401981598" x2="304.4127423822715" y2="267.50010914408205" stroke="blue" stroke-width="1"/>
    <line x1="304.4127423822715" y1="267.50010914408205" x2="303.3157894736842" y2="263.8728780900043" stroke="blue" stroke-width="1"/>
    <line x1="316.57894736842104" y1="273.71821952250104" x2="312.8891966759003" y2="272.85459308105396" stroke="blue" stroke-width="1"/>
    <line x1="312.8891966759003" y1="272.85459308105396" x2="309.1994459833795" y2="271.9909666396069" stroke="blue" stroke-width="1"/>
    <line x1="309.1994459833795" y1="271.9909666396069" x2="308.1024930747923" y2="268.3637355855292" stroke="blue" stroke-width="1"/>
    <line x1="308.1024930747923" y1="268.3637355855292" x2="307.00554016620504" y2="264.7365045314514" stroke="blue" stroke-width="1"/>
    <line x1="307.00554016620504" y1="264.7365045314514" x2="309.59833795013856" y2="261.97289991882076" stroke="blue" stroke-width="1"/>
    <line x1="309.59833795013856" y1="261.97289991882076" x2="313.2880886426593" y2="262.83652636026784" stroke="blue" stroke-width="1"/>
    <line x1="313.2880886426593" y1="262.83652636026784" x2="316.9778393351801" y2="263.7001528017149" stroke="blue" stroke-width="1"/>
    <line x1="316.9778393351801" y1="263.7001528017149" x2="314.38504155124656" y2="266.46375741434554" stroke="blue" stroke-width="1"/>
    <line x1="314.38504155124656" y1="266.46375741434554" x2="310.6952908587258" y2="265.60013097289846" stroke="blue" stroke-width="1"/>
    <line x1="310.6952908587258" y1="265.60013097289846" x2="311.79224376731304" y2="269.22736202697627" stroke="blue" stroke-width="1"/>
    <line x1="311.79224376731304" y1="269.22736202697627" x2="315.4819944598338" y2="270.09098846842335" stroke="blue" stroke-width="1"/>
    <line x1="315.4819944598338" y1="270.09098846842335" x2="318.0747922437673" y2="267.3273838557926" stroke="blue" stroke-width="1"/>
    <line x1="318.0747922437673" y1="267.3273838557926" x2="320.66759002770084" y2="264.563779243162" stroke="blue" stroke-width="1"/>
    <line x1="320.66759002770084" y1="264.563779243162" x2="319.5706371191136" y2="260.9365481890842" stroke="blue" stroke-width="1"/>
    <line x1="319.5706371191136" y1="260.9365481890842" x2="315.88088642659284" y2="260.0729217476371" stroke="blue" stroke-width="1"/>
    <line x1="315.88088642659284" y1="260.0729217476371" x2="312.1911357340721" y2="259.20929530619003" stroke="blue" stroke-width="1"/>
    <line x1="312.1911357340721" y1="259.20929530619003" x2="308.5013850415513" y2="258.34566886474295" stroke="blue" stroke-width="1"/>
    <line x1="308.5013850415513" y1="258.34566886474295" x2="305.9085872576178" y2="261.1092734773737" stroke="blue" stroke-width="1"/>
    <line x1="305.9085872576178" y1="261.1092734773737" x2="303.3157894736843" y2="263.8728780900043" stroke="blue" stroke-width="1"/>
    <line x1="329.8421052631579" y1="283.56356095499785" x2="326.15235457063716" y2="282.6999345135508" stroke="blue" stroke-width="1"/>
    <line x1="326.15235457063716" y1="282.6999345135508" x2="322.4626038781164" y2="281.8363080721037" stroke="blue" stroke-width="1"/>
    <line x1="322.4626038781164" y1="281.8363080721037" x2="321.3656509695291" y2="278.20907701802594" stroke="blue" stroke-width="1"/>
    <line x1="321.3656509695291" y1="278.20907701802594" x2="320.26869806094186" y2="274.5818459639482" stroke="blue" stroke-width="1"/>
    <line x1="320.26869806094186" y1="274.5818459639482" x2="322.8614958448754" y2="271.8182413513175" stroke="blue" stroke-width="1"/>
    <line x1="322.8614958448754" y1="271.8182413513175" x2="326.55124653739614" y2="272.6818677927646" stroke="blue" stroke-width="1"/>
    <line x1="326.55124653739614" y1="272.6818677927646" x2="330.24099722991696" y2="273.5454942342117" stroke="blue" stroke-width="1"/>
    <line x1="330.24099722991696" y1="273.5454942342117" x2="327.64819944598344" y2="276.30909884684235" stroke="blue" stroke-width="1"/>
    <line x1="327.64819944598344" y1="276.30909884684235" x2="323.9584487534626" y2="275.44547240539526" stroke="blue" stroke-width="1"/>
    <line x1="323.9584487534626" y1="275.44547240539526" x2="325.0554016620499" y2="279.072703459473" stroke="blue" stroke-width="1"/>
    <line x1="325.0554016620499" y1="279.072703459473" x2="328.7451523545707" y2="279.9363299009201" stroke="blue" stroke-width="1"/>
    <line x1="328.7451523545707" y1="279.9363299009201" x2="331.3379501385042" y2="277.1727252882894" stroke="blue" stroke-width="1"/>
    <line x1="331.3379501385042" y1="277.1727252882894" x2="333.9307479224377" y2="274.40912067565876" stroke="blue" stroke-width="1"/>
    <line x1="333.9307479224377" y1="274.40912067565876" x2="332.8337950138505" y2="270.781889621581" stroke="blue" stroke-width="1"/>
    <line x1="332.8337950138505" y1="270.781889621581" x2="329.14404432132966" y2="269.9182631801339" stroke="blue" stroke-width="1"/>
    <line x1="329.14404432132966" y1="269.9182631801339" x2="325.4542936288089" y2="269.05463673868684" stroke="blue" stroke-width="1"/>
    <line x1="325.4542936288089" y1="269.05463673868684" x2="321.7645429362881" y2="268.19101029723976" stroke="blue" stroke-width="1"/>
    <line x1="321.7645429362881" y1="268.19101029723976" x2="319.17174515235456" y2="270.95461490987043" stroke="blue" stroke-width="1"/>
    <line x1="319.17174515235456" y1="270.95461490987043" x2="316.57894736842104" y2="273.7182195225011" stroke="blue" stroke-width="1"/>
    <line x1="329.8421052631579" y1="283.56356095499785" x2="330.93905817174516" y2="287.1907920090756" stroke="blue" stroke-width="1"/>
    <line x1="330.93905817174516" y1="287.1907920090756" x2="332.03601108033246" y2="290.81802306315336" stroke="blue" stroke-width="1"/>
    <line x1="332.03601108033246" y1="290.81802306315336" x2="329.44321329639894" y2="293.58162767578403" stroke="blue" stroke-width="1"/>
    <line x1="329.44321329639894" y1="293.58162767578403" x2="326.8504155124654" y2="296.3452322884147" stroke="blue" stroke-width="1"/>
    <line x1="326.8504155124654" y1="296.3452322884147" x2="323.16066481994466" y2="295.4816058469676" stroke="blue" stroke-width="1"/>
    <line x1="323.16066481994466" y1="295.4816058469676" x2="322.06371191135736" y2="291.85437479288987" stroke="blue" stroke-width="1"/>
    <line x1="322.06371191135736" y1="291.85437479288987" x2="320.9667590027701" y2="288.2271437388121" stroke="blue" stroke-width="1"/>
    <line x1="320.9667590027701" y1="288.2271437388121" x2="324.6565096952909" y2="289.0907701802592" stroke="blue" stroke-width="1"/>
    <line x1="324.6565096952909" y1="289.0907701802592" x2="325.7534626038782" y2="292.71800123433695" stroke="blue" stroke-width="1"/>
    <line x1="325.7534626038782" y1="292.71800123433695" x2="328.34626038781164" y2="289.9543966217063" stroke="blue" stroke-width="1"/>
    <line x1="328.34626038781164" y1="289.9543966217063" x2="327.2493074792244" y2="286.3271655676285" stroke="blue" stroke-width="1"/>
    <line x1="327.2493074792244" y1="286.3271655676285" x2="323.55955678670364" y2="285.46353912618144" stroke="blue" stroke-width="1"/>
    <line x1="323.55955678670364" y1="285.46353912618144" x2="319.8698060941829" y2="284.59991268473436" stroke="blue" stroke-width="1"/>
    <line x1="319.8698060941829" y1="284.59991268473436" x2="317.27700831024936" y2="287.36351729736504" stroke="blue" stroke-width="1"/>
    <line x1="317.27700831024936" y1="287.36351729736504" x2="318.3739612188366" y2="290.9907483514428" stroke="blue" stroke-width="1"/>
    <line x1="318.3739612188366" y1="290.9907483514428" x2="319.47091412742384" y2="294.61797940552054" stroke="blue" stroke-width="1"/>
    <line x1="319.47091412742384" y1="294.61797940552054" x2="320.5678670360111" y2="298.2452104595983" stroke="blue" stroke-width="1"/>
    <line x1="320.5678670360111" y1="298.2452104595983" x2="324.25761772853184" y2="299.1088369010454" stroke="blue" stroke-width="1"/>
    <line x1="324.25761772853184" y1="299.1088369010454" x2="327.94736842105266" y2="299.97246334249246" stroke="blue" stroke-width="1"/>
    <line x1="312.7894736842105" y1="306.53602429749037" x2="315.38227146814404" y2="303.77241968485964" stroke="blue" stroke-width="1"/>
    <line x1="315.38227146814404" y1="303.77241968485964" x2="317.97506925207756" y2="301.008815072229" stroke="blue" stroke-width="1"/>
    <line x1="317.97506925207756" y1="301.008815072229" x2="321.6648199445984" y2="301.8724415136761" stroke="blue" stroke-width="1"/>
    <line x1="321.6648199445984" y1="301.8724415136761" x2="325.35457063711914" y2="302.7360679551232" stroke="blue" stroke-width="1"/>
    <line x1="325.35457063711914" y1="302.7360679551232" x2="326.4515235457064" y2="306.3632990092009" stroke="blue" stroke-width="1"/>
    <line x1="326.4515235457064" y1="306.3632990092009" x2="323.85872576177286" y2="309.1269036218316" stroke="blue" stroke-width="1"/>
    <line x1="323.85872576177286" y1="309.1269036218316" x2="321.26592797783934" y2="311.89050823446223" stroke="blue" stroke-width="1"/>
    <line x1="321.26592797783934" y1="311.89050823446223" x2="320.1689750692521" y2="308.26327718038453" stroke="blue" stroke-width="1"/>
    <line x1="320.1689750692521" y1="308.26327718038453" x2="322.7617728531856" y2="305.4996725677538" stroke="blue" stroke-width="1"/>
    <line x1="322.7617728531856" y1="305.4996725677538" x2="319.07202216066486" y2="304.6360461263067" stroke="blue" stroke-width="1"/>
    <line x1="319.07202216066486" y1="304.6360461263067" x2="316.47922437673134" y2="307.39965073893745" stroke="blue" stroke-width="1"/>
    <line x1="316.47922437673134" y1="307.39965073893745" x2="317.5761772853186" y2="311.02688179301515" stroke="blue" stroke-width="1"/>
    <line x1="317.5761772853186" y1="311.02688179301515" x2="318.6731301939059" y2="314.65411284709296" stroke="blue" stroke-width="1"/>
    <line x1="318.6731301939059" y1="314.65411284709296" x2="322.36288088642664" y2="315.51773928854004" stroke="blue" stroke-width="1"/>
    <line x1="322.36288088642664" y1="315.51773928854004" x2="324.95567867036016" y2="312.7541346759093" stroke="blue" stroke-width="1"/>
    <line x1="324.95567867036016" y1="312.7541346759093" x2="327.5484764542937" y2="309.9905300632787" stroke="blue" stroke-width="1"/>
    <line x1="327.5484764542937" y1="309.9905300632787" x2="330.1412742382272" y2="307.22692545064797" stroke="blue" stroke-width="1"/>
    <line x1="330.1412742382272" y1="307.22692545064797" x2="329.0443213296399" y2="303.59969439657027" stroke="blue" stroke-width="1"/>
    <line x1="329.0443213296399" y1="303.59969439657027" x2="327.94736842105266" y2="299.97246334249246" stroke="blue" stroke-width="1"/>
    <line x1="297.63157894736844" y1="313.09958525248817" x2="300.22437673130196" y2="310.33598063985755" stroke="blue" stroke-width="1"/>
    <line x1="300.22437673130196" y1="310.33598063985755" x2="302.8171745152355" y2="307.5723760272268" stroke="blue" stroke-width="1"/>
    <line x1="302.8171745152355" y1="307.5723760272268" x2="306.50692520775624" y2="308.4360024686739" stroke="blue" stroke-width="1"/>
    <line x1="306.50692520775624" y1="308.4360024686739" x2="310.196675900277" y2="309.299628910121" stroke="blue" stroke-width="1"/>
    <line x1="310.196675900277" y1="309.299628910121" x2="311.2936288088643" y2="312.9268599641988" stroke="blue" stroke-width="1"/>
    <line x1="311.2936288088643" y1="312.9268599641988" x2="308.7008310249308" y2="315.6904645768294" stroke="blue" stroke-width="1"/>
    <line x1="308.7008310249308" y1="315.6904645768294" x2="306.10803324099726" y2="318.45406918946014" stroke="blue" stroke-width="1"/>
    <line x1="306.10803324099726" y1="318.45406918946014" x2="305.01108033240996" y2="314.82683813538233" stroke="blue" stroke-width="1"/>
    <line x1="305.01108033240996" y1="314.82683813538233" x2="307.6038781163435" y2="312.0632335227517" stroke="blue" stroke-width="1"/>
    <line x1="307.6038781163435" y1="312.0632335227517" x2="303.9141274238227" y2="311.19960708130463" stroke="blue" stroke-width="1"/>
    <line x1="303.9141274238227" y1="311.19960708130463" x2="301.3213296398892" y2="313.96321169393525" stroke="blue" stroke-width="1"/>
    <line x1="301.3213296398892" y1="313.96321169393525" x2="302.41828254847644" y2="317.59044274801306" stroke="blue" stroke-width="1"/>
    <line x1="302.41828254847644" y1="317.59044274801306" x2="303.51523545706374" y2="321.21767380209076" stroke="blue" stroke-width="1"/>
    <line x1="303.51523545706374" y1="321.21767380209076" x2="307.2049861495845" y2="322.08130024353784" stroke="blue" stroke-width="1"/>
    <line x1="307.2049861495845" y1="322.08130024353784" x2="309.797783933518" y2="319.3176956309072" stroke="blue" stroke-width="1"/>
    <line x1="309.797783933518" y1="319.3176956309072" x2="312.39058171745154" y2="316.5540910182765" stroke="blue" stroke-width="1"/>
    <line x1="312.39058171745154" y1="316.5540910182765" x2="314.98337950138506" y2="313.7904864056459" stroke="blue" stroke-width="1"/>
    <line x1="314.98337950138506" y1="313.7904864056459" x2="313.8864265927978" y2="310.16325535156807" stroke="blue" stroke-width="1"/>
    <line x1="313.8864265927978" y1="310.16325535156807" x2="312.7894736842106" y2="306.53602429749037" stroke="blue" stroke-width="1"/>
    <line x1="299.5263157894737" y1="296.69068286499356" x2="300.62326869806094" y2="300.3179139190713" stroke="blue" stroke-width="1"/>
    <line x1="300.62326869806094" y1="300.3179139190713" x2="301.72022160664824" y2="303.94514497314907" stroke="blue" stroke-width="1"/>
    <line x1="301.72022160664824" y1="303.94514497314907" x2="299.1274238227147" y2="306.70874958577974" stroke="blue" stroke-width="1"/>
    <line x1="299.1274238227147" y1="306.70874958577974" x2="296.5346260387812" y2="309.4723541984104" stroke="blue" stroke-width="1"/>
    <line x1="296.5346260387812" y1="309.4723541984104" x2="292.8448753462604" y2="308.60872775696333" stroke="blue" stroke-width="1"/>
    <line x1="292.8448753462604" y1="308.60872775696333" x2="291.74792243767314" y2="304.9814967028856" stroke="blue" stroke-width="1"/>
    <line x1="291.74792243767314" y1="304.9814967028856" x2="290.6509695290859" y2="301.3542656488078" stroke="blue" stroke-width="1"/>
    <line x1="290.6509695290859" y1="301.3542656488078" x2="294.34072022160666" y2="302.2178920902549" stroke="blue" stroke-width="1"/>
    <line x1="294.34072022160666" y1="302.2178920902549" x2="295.4376731301939" y2="305.84512314433266" stroke="blue" stroke-width="1"/>
    <line x1="295.4376731301939" y1="305.84512314433266" x2="298.0304709141274" y2="303.081518531702" stroke="blue" stroke-width="1"/>
    <line x1="298.0304709141274" y1="303.081518531702" x2="296.9335180055402" y2="299.45428747762423" stroke="blue" stroke-width="1"/>
    <line x1="296.9335180055402" y1="299.45428747762423" x2="293.24376731301936" y2="298.59066103617715" stroke="blue" stroke-width="1"/>
    <line x1="293.24376731301936" y1="298.59066103617715" x2="289.5540166204986" y2="297.72703459473007" stroke="blue" stroke-width="1"/>
    <line x1="289.5540166204986" y1="297.72703459473007" x2="286.9612188365651" y2="300.49063920736074" stroke="blue" stroke-width="1"/>
    <line x1="286.9612188365651" y1="300.49063920736074" x2="288.0581717451523" y2="304.1178702614385" stroke="blue" stroke-width="1"/>
    <line x1="288.0581717451523" y1="304.1178702614385" x2="289.1551246537396" y2="307.74510131551625" stroke="blue" stroke-width="1"/>
    <line x1="289.1551246537396" y1="307.74510131551625" x2="290.25207756232686" y2="311.372332369594" stroke="blue" stroke-width="1"/>
    <line x1="290.25207756232686" y1="311.372332369594" x2="293.9418282548476" y2="312.2359588110411" stroke="blue" stroke-width="1"/>
    <line x1="293.9418282548476" y1="312.2359588110411" x2="297.63157894736844" y2="313.09958525248817" stroke="blue" stroke-width="1"/>
    <line x1="299.5263157894737" y1="296.69068286499356" x2="302.1191135734072" y2="293.9270782523629" stroke="blue" stroke-width="1"/>
    <line x1="302.1191135734072" y1="293.9270782523629" x2="304.71191135734074" y2="291.1634736397322" stroke="blue" stroke-width="1"/>
    <line x1="304.71191135734074" y1="291.1634736397322" x2="308.4016620498615" y2="292.0271000811793" stroke="blue" stroke-width="1"/>
    <line x1="308.4016620498615" y1="292.0271000811793" x2="312.0914127423823" y2="292.8907265226264" stroke="blue" stroke-width="1"/>
    <line x1="312.0914127423823" y1="292.8907265226264" x2="313.18836565096956" y2="296.51795757670413" stroke="blue" stroke-width="1"/>
    <line x1="313.18836565096956" y1="296.51795757670413" x2="310.59556786703604" y2="299.2815621893348" stroke="blue" stroke-width="1"/>
    <line x1="310.59556786703604" y1="299.2815621893348" x2="308.0027700831025" y2="302.0451668019655" stroke="blue" stroke-width="1"/>
    <line x1="308.0027700831025" y1="302.0451668019655" x2="306.9058171745153" y2="298.4179357478877" stroke="blue" stroke-width="1"/>
    <line x1="306.9058171745153" y1="298.4179357478877" x2="309.4986149584488" y2="295.65433113525705" stroke="blue" stroke-width="1"/>
    <line x1="309.4986149584488" y1="295.65433113525705" x2="305.808864265928" y2="294.79070469380997" stroke="blue" stroke-width="1"/>
    <line x1="305.808864265928" y1="294.79070469380997" x2="303.21606648199446" y2="297.55430930644064" stroke="blue" stroke-width="1"/>
    <line x1="303.21606648199446" y1="297.55430930644064" x2="304.31301939058176" y2="301.1815403605184" stroke="blue" stroke-width="1"/>
    <line x1="304.31301939058176" y1="301.1815403605184" x2="305.409972299169" y2="304.80877141459615" stroke="blue" stroke-width="1"/>
    <line x1="305.409972299169" y1="304.80877141459615" x2="309.09972299168976" y2="305.67239785604323" stroke="blue" stroke-width="1"/>
    <line x1="309.09972299168976" y1="305.67239785604323" x2="311.6925207756233" y2="302.90879324341256" stroke="blue" stroke-width="1"/>
    <line x1="311.6925207756233" y1="302.90879324341256" x2="314.2853185595568" y2="300.1451886307819" stroke="blue" stroke-width="1"/>
    <line x1="314.2853185595568" y1="300.1451886307819" x2="316.8781163434903" y2="297.3815840181512" stroke="blue" stroke-width="1"/>
    <line x1="316.8781163434903" y1="297.3815840181512" x2="315.7811634349031" y2="293.75435296407346" stroke="blue" stroke-width="1"/>
    <line x1="315.7811634349031" y1="293.75435296407346" x2="314.68421052631584" y2="290.1271219099957" stroke="blue" stroke-width="1"/>
    <line x1="314.6842105263158" y1="290.1271219099957" x2="310.994459833795" y2="289.2634954685486" stroke="blue" stroke-width="1"/>
    <line x1="310.994459833795" y1="289.2634954685486" x2="307.30470914127426" y2="288.39986902710154" stroke="blue" stroke-width="1"/>
    <line x1="307.30470914127426" y1="288.39986902710154" x2="306.20775623268696" y2="284.7726379730238" stroke="blue" stroke-width="1"/>
    <line x1="306.20775623268696" y1="284.7726379730238" x2="305.1108033240997" y2="281.14540691894604" stroke="blue" stroke-width="1"/>
    <line x1="305.1108033240997" y1="281.14540691894604" x2="307.70360110803324" y2="278.38180230631536" stroke="blue" stroke-width="1"/>
    <line x1="307.70360110803324" y1="278.38180230631536" x2="311.393351800554" y2="279.24542874776245" stroke="blue" stroke-width="1"/>
    <line x1="311.393351800554" y1="279.24542874776245" x2="315.08310249307476" y2="280.1090551892095" stroke="blue" stroke-width="1"/>
    <line x1="315.08310249307476" y1="280.1090551892095" x2="312.49030470914124" y2="282.8726598018402" stroke="blue" stroke-width="1"/>
    <line x1="312.49030470914124" y1="282.8726598018402" x2="308.8005540166205" y2="282.0090333603931" stroke="blue" stroke-width="1"/>
    <line x1="308.8005540166205" y1="282.0090333603931" x2="309.8975069252077" y2="285.6362644144709" stroke="blue" stroke-width="1"/>
    <line x1="309.8975069252077" y1="285.6362644144709" x2="313.58725761772854" y2="286.49989085591795" stroke="blue" stroke-width="1"/>
    <line x1="313.58725761772854" y1="286.49989085591795" x2="316.180055401662" y2="283.7362862432873" stroke="blue" stroke-width="1"/>
    <line x1="316.180055401662" y1="283.7362862432873" x2="318.7728531855955" y2="280.9726816306566" stroke="blue" stroke-width="1"/>
    <line x1="318.7728531855955" y1="280.9726816306566" x2="317.6759002770083" y2="277.34545057657886" stroke="blue" stroke-width="1"/>
    <line x1="317.6759002770083" y1="277.34545057657886" x2="313.9861495844875" y2="276.4818241351318" stroke="blue" stroke-width="1"/>
    <line x1="313.9861495844875" y1="276.4818241351318" x2="310.2963988919667" y2="275.6181976936847" stroke="blue" stroke-width="1"/>
    <line x1="310.2963988919667" y1="275.6181976936847" x2="306.60664819944594" y2="274.7545712522376" stroke="blue" stroke-width="1"/>
    <line x1="306.60664819944594" y1="274.7545712522376" x2="304.0138504155124" y2="277.5181758648683" stroke="blue" stroke-width="1"/>
    <line x1="304.0138504155124" y1="277.5181758648683" x2="301.42105263157896" y2="280.28178047749896" stroke="blue" stroke-width="1"/>
    <line x1="286.2631578947369" y1="286.8453414324968" x2="288.8559556786704" y2="284.08173681986614" stroke="blue" stroke-width="1"/>
    <line x1="288.8559556786704" y1="284.08173681986614" x2="291.4487534626039" y2="281.31813220723546" stroke="blue" stroke-width="1"/>
    <line x1="291.4487534626039" y1="281.31813220723546" x2="295.1385041551247" y2="282.18175864868255" stroke="blue" stroke-width="1"/>
    <line x1="295.1385041551247" y1="282.18175864868255" x2="298.82825484764544" y2="283.0453850901296" stroke="blue" stroke-width="1"/>
    <line x1="298.82825484764544" y1="283.0453850901296" x2="299.9252077562327" y2="286.6726161442074" stroke="blue" stroke-width="1"/>
    <line x1="299.9252077562327" y1="286.6726161442074" x2="297.33240997229916" y2="289.43622075683805" stroke="blue" stroke-width="1"/>
    <line x1="297.33240997229916" y1="289.43622075683805" x2="294.73961218836564" y2="292.1998253694687" stroke="blue" stroke-width="1"/>
    <line x1="294.73961218836564" y1="292.1998253694687" x2="293.6426592797784" y2="288.572594315391" stroke="blue" stroke-width="1"/>
    <line x1="293.6426592797784" y1="288.572594315391" x2="296.2354570637119" y2="285.8089897027603" stroke="blue" stroke-width="1"/>
    <line x1="296.2354570637119" y1="285.8089897027603" x2="292.54570637119116" y2="284.9453632613132" stroke="blue" stroke-width="1"/>
    <line x1="292.54570637119116" y1="284.9453632613132" x2="289.95290858725764" y2="287.7089678739439" stroke="blue" stroke-width="1"/>
    <line x1="289.95290858725764" y1="287.7089678739439" x2="291.0498614958449" y2="291.33619892802164" stroke="blue" stroke-width="1"/>
    <line x1="291.0498614958449" y1="291.33619892802164" x2="292.1468144044321" y2="294.9634299820994" stroke="blue" stroke-width="1"/>
    <line x1="292.1468144044321" y1="294.9634299820994" x2="295.8365650969529" y2="295.8270564235465" stroke="blue" stroke-width="1"/>
    <line x1="295.8365650969529" y1="295.8270564235465" x2="298.4293628808864" y2="293.0634518109158" stroke="blue" stroke-width="1"/>
    <line x1="298.4293628808864" y1="293.0634518109158" x2="301.0221606648199" y2="290.29984719828514" stroke="blue" stroke-width="1"/>
    <line x1="301.0221606648199" y1="290.29984719828514" x2="303.61495844875344" y2="287.53624258565446" stroke="blue" stroke-width="1"/>
    <line x1="303.61495844875344" y1="287.53624258565446" x2="302.5180055401662" y2="283.9090115315767" stroke="blue" stroke-width="1"/>
    <line x1="302.5180055401662" y1="283.9090115315767" x2="301.42105263157896" y2="280.28178047749896" stroke="blue" stroke-width="1"/>
    <line x1="286.2631578947369" y1="286.8453414324968" x2="287.3601108033241" y2="290.47257248657456" stroke="blue" stroke-width="1"/>
    <line x1="287.3601108033241" y1="290.47257248657456" x2="288.45706371191136" y2="294.0998035406523" stroke="blue" stroke-width="1"/>
    <line x1="288.45706371191136" y1="294.0998035406523" x2="285.86426592797784" y2="296.863408153283" stroke="blue" stroke-width="1"/>
    <line x1="285.86426592797784" y1="296.863408153283" x2="283.2714681440443" y2="299.62701276591366" stroke="blue" stroke-width="1"/>
    <line x1="283.2714681440443" y1="299.62701276591366" x2="279.58171745152356" y2="298.7633863244666" stroke="blue" stroke-width="1"/>
    <line x1="279.58171745152356" y1="298.7633863244666" x2="278.48476454293626" y2="295.1361552703888" stroke="blue" stroke-width="1"/>
    <line x1="278.48476454293626" y1="295.1361552703888" x2="277.387811634349" y2="291.5089242163111" stroke="blue" stroke-width="1"/>
    <line x1="277.387811634349" y1="291.5089242163111" x2="281.0775623268698" y2="292.37255065775815" stroke="blue" stroke-width="1"/>
    <line x1="281.0775623268698" y1="292.37255065775815" x2="282.1745152354571" y2="295.9997817118359" stroke="blue" stroke-width="1"/>
    <line x1="282.1745152354571" y1="295.9997817118359" x2="284.7673130193906" y2="293.23617709920524" stroke="blue" stroke-width="1"/>
    <line x1="284.7673130193906" y1="293.23617709920524" x2="283.6703601108033" y2="289.6089460451275" stroke="blue" stroke-width="1"/>
    <line x1="283.6703601108033" y1="289.6089460451275" x2="279.98060941828254" y2="288.7453196036804" stroke="blue" stroke-width="1"/>
    <line x1="279.98060941828254" y1="288.7453196036804" x2="276.2908587257617" y2="287.8816931622333" stroke="blue" stroke-width="1"/>
    <line x1="276.2908587257617" y1="287.8816931622333" x2="273.6980609418282" y2="290.645297774864" stroke="blue" stroke-width="1"/>
    <line x1="273.6980609418282" y1="290.645297774864" x2="274.7950138504155" y2="294.27252882894174" stroke="blue" stroke-width="1"/>
    <line x1="274.7950138504155" y1="294.27252882894174" x2="275.8919667590028" y2="297.8997598830195" stroke="blue" stroke-width="1"/>
    <line x1="275.8919667590028" y1="297.8997598830195" x2="276.98891966759004" y2="301.52699093709725" stroke="blue" stroke-width="1"/>
    <line x1="276.98891966759004" y1="301.52699093709725" x2="280.6786703601108" y2="302.39061737854433" stroke="blue" stroke-width="1"/>
    <line x1="280.6786703601108" y1="302.39061737854433" x2="284.36842105263156" y2="303.2542438199914" stroke="blue" stroke-width="1"/>
    <line x1="284.3684210526316" y1="303.2542438199914" x2="285.46537396121886" y2="306.8814748740692" stroke="blue" stroke-width="1"/>
    <line x1="285.46537396121886" y1="306.8814748740692" x2="286.5623268698061" y2="310.5087059281469" stroke="blue" stroke-width="1"/>
    <line x1="286.5623268698061" y1="310.5087059281469" x2="283.9695290858726" y2="313.27231054077765" stroke="blue" stroke-width="1"/>
    <line x1="283.9695290858726" y1="313.27231054077765" x2="281.37673130193906" y2="316.03591515340827" stroke="blue" stroke-width="1"/>
    <line x1="281.37673130193906" y1="316.03591515340827" x2="277.6869806094183" y2="315.1722887119612" stroke="blue" stroke-width="1"/>
    <line x1="277.6869806094183" y1="315.1722887119612" x2="276.590027700831" y2="311.5450576578835" stroke="blue" stroke-width="1"/>
    <line x1="276.590027700831" y1="311.5450576578835" x2="275.49307479224376" y2="307.9178266038057" stroke="blue" stroke-width="1"/>
    <line x1="275.49307479224376" y1="307.9178266038057" x2="279.1828254847645" y2="308.78145304525276" stroke="blue" stroke-width="1"/>
    <line x1="279.1828254847645" y1="308.78145304525276" x2="280.2797783933518" y2="312.40868409933057" stroke="blue" stroke-width="1"/>
    <line x1="280.2797783933518" y1="312.40868409933057" x2="282.8725761772853" y2="309.64507948669984" stroke="blue" stroke-width="1"/>
    <line x1="282.8725761772853" y1="309.64507948669984" x2="281.77562326869804" y2="306.01784843262215" stroke="blue" stroke-width="1"/>
    <line x1="281.77562326869804" y1="306.01784843262215" x2="278.0858725761773" y2="305.15422199117506" stroke="blue" stroke-width="1"/>
    <line x1="278.0858725761773" y1="305.15422199117506" x2="274.3961218836565" y2="304.290595549728" stroke="blue" stroke-width="1"/>
    <line x1="274.3961218836565" y1="304.290595549728" x2="271.803324099723" y2="307.0542001623586" stroke="blue" stroke-width="1"/>
    <line x1="271.803324099723" y1="307.0542001623586" x2="272.90027700831024" y2="310.6814312164364" stroke="blue" stroke-width="1"/>
    <line x1="272.90027700831024" y1="310.6814312164364" x2="273.9972299168975" y2="314.3086622705141" stroke="blue" stroke-width="1"/>
    <line x1="273.9972299168975" y1="314.3086622705141" x2="275.0941828254848" y2="317.9358933245919" stroke="blue" stroke-width="1"/>
    <line x1="275.0941828254848" y1="317.9358933245919" x2="278.78393351800554" y2="318.799519766039" stroke="blue" stroke-width="1"/>
    <line x1="278.78393351800554" y1="318.799519766039" x2="282.47368421052636" y2="319.6631462074861" stroke="blue" stroke-width="1"/>
    <line x1="295.73684210526324" y1="329.50848763998283" x2="292.0470914127424" y2="328.64486119853575" stroke="blue" stroke-width="1"/>
    <line x1="292.0470914127424" y1="328.64486119853575" x2="288.35734072022166" y2="327.78123475708867" stroke="blue" stroke-width="1"/>
    <line x1="288.35734072022166" y1="327.78123475708867" x2="287.26038781163436" y2="324.1540037030109" stroke="blue" stroke-width="1"/>
    <line x1="287.26038781163436" y1="324.1540037030109" x2="286.1634349030471" y2="320.52677264893316" stroke="blue" stroke-width="1"/>
    <line x1="286.1634349030471" y1="320.52677264893316" x2="288.75623268698064" y2="317.7631680363025" stroke="blue" stroke-width="1"/>
    <line x1="288.75623268698064" y1="317.7631680363025" x2="292.4459833795014" y2="318.62679447774957" stroke="blue" stroke-width="1"/>
    <line x1="292.4459833795014" y1="318.62679447774957" x2="296.13573407202216" y2="319.49042091919665" stroke="blue" stroke-width="1"/>
    <line x1="296.13573407202216" y1="319.49042091919665" x2="293.54293628808864" y2="322.2540255318273" stroke="blue" stroke-width="1"/>
    <line x1="293.54293628808864" y1="322.2540255318273" x2="289.8531855955679" y2="321.39039909038024" stroke="blue" stroke-width="1"/>
    <line x1="289.8531855955679" y1="321.39039909038024" x2="290.9501385041552" y2="325.017630144458" stroke="blue" stroke-width="1"/>
    <line x1="290.9501385041552" y1="325.017630144458" x2="294.63988919667594" y2="325.8812565859051" stroke="blue" stroke-width="1"/>
    <line x1="294.63988919667594" y1="325.8812565859051" x2="297.23268698060946" y2="323.1176519732744" stroke="blue" stroke-width="1"/>
    <line x1="297.23268698060946" y1="323.1176519732744" x2="299.8254847645429" y2="320.35404736064373" stroke="blue" stroke-width="1"/>
    <line x1="299.8254847645429" y1="320.35404736064373" x2="298.7285318559557" y2="316.726816306566" stroke="blue" stroke-width="1"/>
    <line x1="298.7285318559557" y1="316.726816306566" x2="295.0387811634349" y2="315.8631898651189" stroke="blue" stroke-width="1"/>
    <line x1="295.0387811634349" y1="315.8631898651189" x2="291.34903047091416" y2="314.9995634236718" stroke="blue" stroke-width="1"/>
    <line x1="291.34903047091416" y1="314.9995634236718" x2="287.65927977839334" y2="314.13593698222473" stroke="blue" stroke-width="1"/>
    <line x1="287.65927977839334" y1="314.13593698222473" x2="285.0664819944599" y2="316.8995415948554" stroke="blue" stroke-width="1"/>
    <line x1="285.0664819944599" y1="316.8995415948554" x2="282.47368421052636" y2="319.6631462074861" stroke="blue" stroke-width="1"/>
    <line x1="295.73684210526324" y1="329.50848763998283" x2="298.32963988919676" y2="326.74488302735216" stroke="blue" stroke-width="1"/>
    <line x1="298.32963988919676" y1="326.74488302735216" x2="300.9224376731303" y2="323.9812784147215" stroke="blue" stroke-width="1"/>
    <line x1="300.9224376731303" y1="323.9812784147215" x2="304.61218836565104" y2="324.84490485616857" stroke="blue" stroke-width="1"/>
    <line x1="304.61218836565104" y1="324.84490485616857" x2="308.3019390581718" y2="325.70853129761565" stroke="blue" stroke-width="1"/>
    <line x1="308.3019390581718" y1="325.70853129761565" x2="309.39889196675904" y2="329.3357623516934" stroke="blue" stroke-width="1"/>
    <line x1="309.39889196675904" y1="329.3357623516934" x2="306.8060941828255" y2="332.0993669643241" stroke="blue" stroke-width="1"/>
    <line x1="306.8060941828255" y1="332.0993669643241" x2="304.213296398892" y2="334.86297157695475" stroke="blue" stroke-width="1"/>
    <line x1="304.213296398892" y1="334.86297157695475" x2="303.11634349030476" y2="331.235740522877" stroke="blue" stroke-width="1"/>
    <line x1="303.11634349030476" y1="331.235740522877" x2="305.7091412742383" y2="328.4721359102463" stroke="blue" stroke-width="1"/>
    <line x1="305.7091412742383" y1="328.4721359102463" x2="302.0193905817175" y2="327.60850946879924" stroke="blue" stroke-width="1"/>
    <line x1="302.0193905817175" y1="327.60850946879924" x2="299.426592797784" y2="330.3721140814299" stroke="blue" stroke-width="1"/>
    <line x1="299.426592797784" y1="330.3721140814299" x2="300.52354570637124" y2="333.99934513550767" stroke="blue" stroke-width="1"/>
    <line x1="300.52354570637124" y1="333.99934513550767" x2="301.6204986149585" y2="337.6265761895854" stroke="blue" stroke-width="1"/>
    <line x1="301.6204986149585" y1="337.6265761895854" x2="305.31024930747924" y2="338.4902026310325" stroke="blue" stroke-width="1"/>
    <line x1="305.31024930747924" y1="338.4902026310325" x2="307.90304709141276" y2="335.72659801840183" stroke="blue" stroke-width="1"/>
    <line x1="307.90304709141276" y1="335.72659801840183" x2="310.4958448753463" y2="332.96299340577116" stroke="blue" stroke-width="1"/>
    <line x1="310.4958448753463" y1="332.96299340577116" x2="313.0886426592798" y2="330.1993887931405" stroke="blue" stroke-width="1"/>
    <line x1="313.0886426592798" y1="330.1993887931405" x2="311.99168975069256" y2="326.57215773906273" stroke="blue" stroke-width="1"/>
    <line x1="311.99168975069256" y1="326.57215773906273" x2="310.8947368421053" y2="322.944926684985" stroke="blue" stroke-width="1"/>
    <line x1="310.8947368421053" y1="322.944926684985" x2="313.48753462603884" y2="320.1813220723543" stroke="blue" stroke-width="1"/>
    <line x1="313.48753462603884" y1="320.1813220723543" x2="316.08033240997236" y2="317.41771745972363" stroke="blue" stroke-width="1"/>
    <line x1="316.08033240997236" y1="317.41771745972363" x2="319.7700831024931" y2="318.2813439011707" stroke="blue" stroke-width="1"/>
    <line x1="319.7700831024931" y1="318.2813439011707" x2="323.4598337950139" y2="319.1449703426178" stroke="blue" stroke-width="1"/>
    <line x1="323.4598337950139" y1="319.1449703426178" x2="324.5567867036011" y2="322.77220139669555" stroke="blue" stroke-width="1"/>
    <line x1="324.5567867036011" y1="322.77220139669555" x2="321.9639889196676" y2="325.5358060093262" stroke="blue" stroke-width="1"/>
    <line x1="321.9639889196676" y1="325.5358060093262" x2="319.3711911357341" y2="328.2994106219569" stroke="blue" stroke-width="1"/>
    <line x1="319.3711911357341" y1="328.2994106219569" x2="318.27423822714684" y2="324.67217956787914" stroke="blue" stroke-width="1"/>
    <line x1="318.27423822714684" y1="324.67217956787914" x2="320.86703601108036" y2="321.90857495524847" stroke="blue" stroke-width="1"/>
    <line x1="320.86703601108036" y1="321.90857495524847" x2="317.1772853185596" y2="321.0449485138014" stroke="blue" stroke-width="1"/>
    <line x1="317.1772853185596" y1="321.0449485138014" x2="314.5844875346261" y2="323.80855312643206" stroke="blue" stroke-width="1"/>
    <line x1="314.5844875346261" y1="323.80855312643206" x2="315.6814404432133" y2="327.4357841805098" stroke="blue" stroke-width="1"/>
    <line x1="315.6814404432133" y1="327.4357841805098" x2="316.77839335180056" y2="331.06301523458757" stroke="blue" stroke-width="1"/>
    <line x1="316.77839335180056" y1="331.06301523458757" x2="320.4681440443214" y2="331.92664167603465" stroke="blue" stroke-width="1"/>
    <line x1="320.4681440443214" y1="331.92664167603465" x2="323.0609418282549" y2="329.163037063404" stroke="blue" stroke-width="1"/>
    <line x1="323.0609418282549" y1="329.163037063404" x2="325.6537396121884" y2="326.3994324507733" stroke="blue" stroke-width="1"/>
    <line x1="325.6537396121884" y1="326.3994324507733" x2="328.2465373961219" y2="323.63582783814263" stroke="blue" stroke-width="1"/>
    <line x1="328.2465373961219" y1="323.63582783814263" x2="327.14958448753464" y2="320.0085967840649" stroke="blue" stroke-width="1"/>
    <line x1="327.14958448753464" y1="320.0085967840649" x2="326.0526315789474" y2="316.3813657299871" stroke="blue" stroke-width="1"/>
    <line x1="326.0526315789474" y1="316.3813657299871" x2="328.6454293628809" y2="313.61776111735645" stroke="blue" stroke-width="1"/>
    <line x1="328.6454293628809" y1="313.61776111735645" x2="331.23822714681444" y2="310.8541565047258" stroke="blue" stroke-width="1"/>
    <line x1="331.23822714681444" y1="310.8541565047258" x2="334.9279778393352" y2="311.71778294617286" stroke="blue" stroke-width="1"/>
    <line x1="334.9279778393352" y1="311.71778294617286" x2="338.617728531856" y2="312.58140938761994" stroke="blue" stroke-width="1"/>
    <line x1="338.617728531856" y1="312.58140938761994" x2="339.7146814404433" y2="316.2086404416977" stroke="blue" stroke-width="1"/>
    <line x1="339.7146814404433" y1="316.2086404416977" x2="337.1218836565098" y2="318.97224505432837" stroke="blue" stroke-width="1"/>
    <line x1="337.1218836565098" y1="318.97224505432837" x2="334.5290858725763" y2="321.73584966695904" stroke="blue" stroke-width="1"/>
    <line x1="334.5290858725763" y1="321.73584966695904" x2="333.432132963989" y2="318.1086186128813" stroke="blue" stroke-width="1"/>
    <line x1="333.432132963989" y1="318.1086186128813" x2="336.0249307479225" y2="315.3450140002506" stroke="blue" stroke-width="1"/>
    <line x1="336.0249307479225" y1="315.3450140002506" x2="332.3351800554017" y2="314.48138755880353" stroke="blue" stroke-width="1"/>
    <line x1="332.3351800554017" y1="314.48138755880353" x2="329.74238227146816" y2="317.2449921714342" stroke="blue" stroke-width="1"/>
    <line x1="329.74238227146816" y1="317.2449921714342" x2="330.83933518005546" y2="320.87222322551196" stroke="blue" stroke-width="1"/>
    <line x1="330.83933518005546" y1="320.87222322551196" x2="331.93628808864275" y2="324.4994542795897" stroke="blue" stroke-width="1"/>
    <line x1="331.93628808864275" y1="324.4994542795897" x2="335.6260387811635" y2="325.3630807210368" stroke="blue" stroke-width="1"/>
    <line x1="335.6260387811635" y1="325.3630807210368" x2="338.21883656509704" y2="322.5994761084061" stroke="blue" stroke-width="1"/>
    <line x1="338.21883656509704" y1="322.5994761084061" x2="340.81163434903056" y2="319.83587149577545" stroke="blue" stroke-width="1"/>
    <line x1="340.81163434903056" y1="319.83587149577545" x2="343.4044321329641" y2="317.0722668831448" stroke="blue" stroke-width="1"/>
    <line x1="343.4044321329641" y1="317.0722668831448" x2="342.30747922437683" y2="313.445035829067" stroke="blue" stroke-width="1"/>
    <line x1="342.30747922437683" y1="313.445035829067" x2="341.21052631578954" y2="309.81780477498927" stroke="blue" stroke-width="1"/>
    <line x1="343.1052631578948" y1="293.40890238749466" x2="344.20221606648204" y2="297.03613344157236" stroke="blue" stroke-width="1"/>
    <line x1="344.20221606648204" y1="297.03613344157236" x2="345.2991689750693" y2="300.66336449565017" stroke="blue" stroke-width="1"/>
    <line x1="345.2991689750693" y1="300.66336449565017" x2="342.70637119113576" y2="303.4269691082808" stroke="blue" stroke-width="1"/>
    <line x1="342.70637119113576" y1="303.4269691082808" x2="340.11357340720224" y2="306.1905737209115" stroke="blue" stroke-width="1"/>
    <line x1="340.11357340720224" y1="306.1905737209115" x2="336.4238227146815" y2="305.32694727946443" stroke="blue" stroke-width="1"/>
    <line x1="336.4238227146815" y1="305.32694727946443" x2="335.32686980609424" y2="301.6997162253866" stroke="blue" stroke-width="1"/>
    <line x1="335.32686980609424" y1="301.6997162253866" x2="334.22991689750694" y2="298.0724851713089" stroke="blue" stroke-width="1"/>
    <line x1="334.22991689750694" y1="298.0724851713089" x2="337.91966759002776" y2="298.936111612756" stroke="blue" stroke-width="1"/>
    <line x1="337.91966759002776" y1="298.936111612756" x2="339.016620498615" y2="302.5633426668337" stroke="blue" stroke-width="1"/>
    <line x1="339.016620498615" y1="302.5633426668337" x2="341.6094182825485" y2="299.7997380542031" stroke="blue" stroke-width="1"/>
    <line x1="341.6094182825485" y1="299.7997380542031" x2="340.5124653739613" y2="296.1725070001253" stroke="blue" stroke-width="1"/>
    <line x1="340.5124653739613" y1="296.1725070001253" x2="336.82271468144046" y2="295.3088805586782" stroke="blue" stroke-width="1"/>
    <line x1="336.82271468144046" y1="295.3088805586782" x2="333.13296398891964" y2="294.4452541172311" stroke="blue" stroke-width="1"/>
    <line x1="333.13296398891964" y1="294.4452541172311" x2="330.5401662049861" y2="297.20885872986184" stroke="blue" stroke-width="1"/>
    <line x1="330.5401662049861" y1="297.20885872986184" x2="331.6371191135734" y2="300.83608978393954" stroke="blue" stroke-width="1"/>
    <line x1="331.6371191135734" y1="300.83608978393954" x2="332.7340720221607" y2="304.46332083801735" stroke="blue" stroke-width="1"/>
    <line x1="332.7340720221607" y1="304.46332083801735" x2="333.83102493074796" y2="308.09055189209505" stroke="blue" stroke-width="1"/>
    <line x1="333.83102493074796" y1="308.09055189209505" x2="337.5207756232687" y2="308.95417833354213" stroke="blue" stroke-width="1"/>
    <line x1="337.5207756232687" y1="308.95417833354213" x2="341.21052631578954" y2="309.8178047749892" stroke="blue" stroke-width="1"/>
    <line x1="345.0" y1="277.0" x2="346.0969529085873" y2="280.62723105407775" stroke="blue" stroke-width="1"/>
    <line x1="346.0969529085873" y1="280.62723105407775" x2="347.1939058171746" y2="284.2544621081555" stroke="blue" stroke-width="1"/>
    <line x1="347.1939058171746" y1="284.2544621081555" x2="344.6011080332411" y2="287.0180667207862" stroke="blue" stroke-width="1"/>
    <line x1="344.6011080332411" y1="287.0180667207862" x2="342.00831024930756" y2="289.78167133341685" stroke="blue" stroke-width="1"/>
    <line x1="342.00831024930756" y1="289.78167133341685" x2="338.31855955678674" y2="288.91804489196977" stroke="blue" stroke-width="1"/>
    <line x1="338.31855955678674" y1="288.91804489196977" x2="337.22160664819944" y2="285.290813837892" stroke="blue" stroke-width="1"/>
    <line x1="337.22160664819944" y1="285.290813837892" x2="336.1246537396122" y2="281.66358278381426" stroke="blue" stroke-width="1"/>
    <line x1="336.1246537396122" y1="281.66358278381426" x2="339.81440443213296" y2="282.52720922526134" stroke="blue" stroke-width="1"/>
    <line x1="339.81440443213296" y1="282.52720922526134" x2="340.91135734072026" y2="286.1544402793391" stroke="blue" stroke-width="1"/>
    <line x1="340.91135734072026" y1="286.1544402793391" x2="343.5041551246538" y2="283.3908356667084" stroke="blue" stroke-width="1"/>
    <line x1="343.5041551246538" y1="283.3908356667084" x2="342.4072022160665" y2="279.7636046126307" stroke="blue" stroke-width="1"/>
    <line x1="342.4072022160665" y1="279.7636046126307" x2="338.7174515235457" y2="278.8999781711836" stroke="blue" stroke-width="1"/>
    <line x1="338.7174515235457" y1="278.8999781711836" x2="335.02770083102496" y2="278.0363517297365" stroke="blue" stroke-width="1"/>
    <line x1="335.02770083102496" y1="278.0363517297365" x2="332.43490304709144" y2="280.7999563423672" stroke="blue" stroke-width="1"/>
    <line x1="332.43490304709144" y1="280.7999563423672" x2="333.5318559556787" y2="284.42718739644494" stroke="blue" stroke-width="1"/>
    <line x1="333.5318559556787" y1="284.42718739644494" x2="334.6288088642659" y2="288.0544184505227" stroke="blue" stroke-width="1"/>
    <line x1="334.6288088642659" y1="288.0544184505227" x2="335.7257617728532" y2="291.68164950460044" stroke="blue" stroke-width="1"/>
    <line x1="335.7257617728532" y1="291.68164950460044" x2="339.41551246537404" y2="292.5452759460475" stroke="blue" stroke-width="1"/>
    <line x1="339.41551246537404" y1="292.5452759460475" x2="343.1052631578948" y2="293.4089023874946" stroke="blue" stroke-width="1"/>
    <text x="200" y="581.25" font-size="13" fill="purple" style="text-anchor: middle" transform="rotate(0 200,581.25)">Digital</text>
    <text x="200" y="594.25" font-size="13" fill="purple" style="text-anchor: middle" transform="rotate(0 200,594.25)">Manufacturing</text>
    <text x="200" y="183.25" font-size="11" fill="purple" style="text-anchor: middle" transform="rotate(0 200,183.25)">Gigi - 2</text>
    <text x="118.125" y="307.0" font-size="13" fill="purple" style="text-anchor: middle" transform="rotate(-90 118.125,307.0)">8 - K.Bryant -24</text>
    <text x="200" y="444.5" font-size="11" fill="purple" style="text-anchor: middle" transform="rotate(180 200,444.5)">L.Pan</text>
    <text x="200" y="464.5" font-size="11" fill="purple" style="text-anchor: middle" transform="rotate(180 200,464.5)">L.Shen</text>
    <image x="150" y="520.0" width="100" height="40" transform ="rotate(0)" xlink:href="https://www.nicepng.com/png/detail/141-1417263_filecolumbia-crown-simple-columbia-university-logo.png"/>
    <image x="72.5" y="257.0" width="28" height="40" transform ="rotate(0)" xlink:href="https://i.pinimg.com/236x/69/b6/49/69b64998a7c08c20b564647c23a7a3e3.jpg"/>
</svg>